<svg width="36" height="43" viewBox="0 0 36 43" fill="none" xmlns="http://www.w3.org/2000/svg">
<mask id="path-1-outside-1_45_292" maskUnits="userSpaceOnUse" x="0" y="0" width="36" height="43" fill="black">
<rect fill="white" width="36" height="43"/>
<path d="M0 0H36V40H0V0Z"/>
</mask>
<path d="M36 40V37H0V40V43H36V40Z" fill="#332211" mask="url(#path-1-outside-1_45_292)"/>
<path d="M7.5 31.6667H9.6375L24.3 15.375L22.1625 13L7.5 29.2917V31.6667ZM4.5 35V27.9167L24.3 5.95833C24.6 5.65278 24.9312 5.41667 25.2938 5.25C25.6562 5.08333 26.0375 5 26.4375 5C26.8375 5 27.225 5.08333 27.6 5.25C27.975 5.41667 28.3 5.66667 28.575 6L30.6375 8.33333C30.9375 8.63889 31.1563 9 31.2938 9.41667C31.4313 9.83333 31.5 10.25 31.5 10.6667C31.5 11.1111 31.4313 11.5347 31.2938 11.9375C31.1563 12.3403 30.9375 12.7083 30.6375 13.0417L10.875 35H4.5ZM23.2125 14.2083L22.1625 13L24.3 15.375L23.2125 14.2083Z" fill="#332211"/>
</svg>
