<svg width="45" height="43" viewBox="0 0 45 43" fill="none" xmlns="http://www.w3.org/2000/svg">
<path d="M20.625 30.4583H24.375V23.2916H31.875V19.7083H24.375V12.5416H20.625V19.7083H13.125V23.2916H20.625V30.4583ZM22.5 39.4166C19.9062 39.4166 17.4688 38.9537 15.1875 38.028C12.9063 37.0725 10.9219 35.7885 9.23438 34.176C7.54688 32.5635 6.20312 30.6673 5.20313 28.4874C4.23438 26.3076 3.75 23.9784 3.75 21.4999C3.75 19.0214 4.23438 16.6923 5.20313 14.5124C6.20312 12.3326 7.54688 10.4364 9.23438 8.82388C10.9219 7.21138 12.9063 5.94228 15.1875 5.01658C17.4688 4.06103 19.9062 3.58325 22.5 3.58325C25.0938 3.58325 27.5313 4.06103 29.8125 5.01658C32.0938 5.94228 34.0781 7.21138 35.7656 8.82388C37.4531 10.4364 38.7812 12.3326 39.75 14.5124C40.75 16.6923 41.25 19.0214 41.25 21.4999C41.25 23.9784 40.75 26.3076 39.75 28.4874C38.7812 30.6673 37.4531 32.5635 35.7656 34.176C34.0781 35.7885 32.0938 37.0725 29.8125 38.028C27.5313 38.9537 25.0938 39.4166 22.5 39.4166ZM22.5 35.8333C26.6875 35.8333 30.2344 34.4447 33.1406 31.6676C36.0469 28.8905 37.5 25.5013 37.5 21.4999C37.5 17.4985 36.0469 14.1093 33.1406 11.3322C30.2344 8.55513 26.6875 7.16658 22.5 7.16658C18.3125 7.16658 14.7656 8.55513 11.8594 11.3322C8.95312 14.1093 7.5 17.4985 7.5 21.4999C7.5 25.5013 8.95312 28.8905 11.8594 31.6676C14.7656 34.4447 18.3125 35.8333 22.5 35.8333Z" fill="#332211"/>
</svg>
