<svg width="44" height="39" viewBox="0 0 44 39" fill="none" xmlns="http://www.w3.org/2000/svg">
<path d="M35.9333 34.125L24.3833 23.8875C23.4667 24.5375 22.4125 25.0521 21.2208 25.4313C20.0292 25.8104 18.7611 26 17.4167 26C14.0861 26 11.2674 24.9776 8.96042 22.9328C6.65347 20.888 5.5 18.3896 5.5 15.4375C5.5 12.4854 6.65347 9.98698 8.96042 7.94219C11.2674 5.8974 14.0861 4.875 17.4167 4.875C20.7472 4.875 23.566 5.8974 25.8729 7.94219C28.1799 9.98698 29.3333 12.4854 29.3333 15.4375C29.3333 16.6292 29.1194 17.7531 28.6917 18.8094C28.2639 19.8656 27.6833 20.8 26.95 21.6125L38.5 31.85L35.9333 34.125ZM17.4167 22.75C19.7083 22.75 21.6562 22.0391 23.2604 20.6172C24.8646 19.1953 25.6667 17.4688 25.6667 15.4375C25.6667 13.4062 24.8646 11.6797 23.2604 10.2578C21.6562 8.83594 19.7083 8.125 17.4167 8.125C15.125 8.125 13.1771 8.83594 11.5729 10.2578C9.96875 11.6797 9.16667 13.4062 9.16667 15.4375C9.16667 17.4688 9.96875 19.1953 11.5729 20.6172C13.1771 22.0391 15.125 22.75 17.4167 22.75Z" fill="#1D1B20"/>
</svg>
